<?xml version="1.0" encoding="UTF-8"?> <svg xmlns="http://www.w3.org/2000/svg" width="188" height="65" viewBox="0 0 188 65" fill="none"><path d="M39.0663 46.9549L29.4102 30.2314H33.8511L40.6251 42.3195L47.075 30.2314H50.96L41.7575 46.9549H39.0663Z" fill="white"></path><path d="M57.2773 46.9539V30.2305H61.1623L61.2032 46.9539H57.2808H57.2773Z" fill="white"></path><path d="M99.543 46.9539V30.2305H103.428L103.469 46.9539H99.5464H99.543Z" fill="white"></path><path d="M85.6064 33.1507H74.6575V36.7491H85.0913C86.7149 36.7491 87.8302 37.0288 88.4306 37.5882C88.9899 38.1578 89.2696 39.1947 89.2696 40.6989V43.0012C89.2696 44.5088 88.9899 45.5491 88.4306 46.1188C87.8302 46.6781 86.7149 46.9578 85.0913 46.9578H74.753C73.1192 46.9578 72.0175 46.6781 71.4479 46.1188C70.868 45.5662 70.5781 44.5259 70.5781 43.0046V42.5544L74.0129 41.845V43.8198H85.8383V39.9997H75.4045C73.7912 39.9997 72.6997 39.72 72.1301 39.1606C71.5502 38.608 71.2603 37.5677 71.2603 36.0499V34.1978C71.2603 32.6766 71.5502 31.6397 72.1301 31.0871C72.6929 30.5209 73.7877 30.2412 75.4045 30.2412H84.8969C86.4727 30.2412 87.5642 30.5141 88.1713 31.0564C88.7512 31.5987 89.0411 32.5504 89.0411 33.9045V34.2592L85.6064 35.0744V33.1609V33.1507Z" fill="white"></path><path d="M112.875 34.1871C112.875 32.6829 113.155 31.646 113.714 31.0764C114.311 30.5136 115.413 30.2305 117.023 30.2305H129.346C130.97 30.2305 132.061 30.5136 132.614 31.0764C133.2 31.6289 133.494 32.6658 133.494 34.1871V43.0007C133.494 44.5254 133.2 45.5623 132.614 46.1183C132.054 46.6776 130.966 46.9573 129.346 46.9573H117.023C115.42 46.9573 114.314 46.6776 113.714 46.1183C113.155 45.5486 112.875 44.5083 112.875 43.0007V34.1871ZM116.767 43.8159H129.598V33.215H116.767V43.8159Z" fill="white"></path><path d="M143.253 46.9544V30.231H145.91L157.664 40.0883C158.145 40.4533 158.503 40.7535 158.739 40.9888C158.954 41.2105 159.233 41.5141 159.578 41.8995C159.547 41.4186 159.523 41.04 159.506 40.7637C159.489 40.4874 159.472 40.2043 159.452 39.9212C159.431 39.662 159.421 39.3584 159.421 39.0105V30.2275H162.917V46.951H160.26L147.981 36.6127C147.626 36.3057 147.367 36.0703 147.196 35.8998C146.917 35.6201 146.712 35.4052 146.586 35.2517C146.596 35.4427 146.617 35.6951 146.651 36.0124C146.685 36.3296 146.702 36.5649 146.715 36.715C146.736 37.0356 146.746 37.4347 146.746 37.9088V46.951H143.25L143.253 46.9544Z" fill="white"></path><path d="M29.2461 19.49V2.7666H33.1311L33.172 19.49H29.2495H29.2461Z" fill="#E15524"></path><path d="M39.3906 19.49V2.7666H42.0477L53.8049 12.624C54.2858 12.9889 54.644 13.2891 54.8793 13.5245C55.0942 13.7462 55.3739 14.0497 55.7184 14.4352C55.6877 13.9542 55.6638 13.5756 55.6468 13.2993C55.6297 13.0231 55.6127 12.74 55.5922 12.4569C55.5717 12.1976 55.5615 11.8941 55.5615 11.5462V2.7666H59.0576V19.49H56.4006L44.1215 9.15173C43.7668 8.84475 43.5075 8.6094 43.337 8.43886C43.0573 8.15917 42.8526 7.94429 42.7264 7.7908C42.7367 7.98181 42.7571 8.23421 42.7913 8.55142C42.8254 8.86863 42.8424 9.10398 42.8561 9.25406C42.8765 9.57468 42.8868 9.97375 42.8868 10.4479V19.49H39.3906Z" fill="#E15524"></path><path d="M79.3056 5.68583H68.3567V9.28429H78.7906C80.4141 9.28429 81.5295 9.56398 82.1298 10.1234C82.6892 10.693 82.9689 11.7299 82.9689 13.2341V15.5364C82.9689 17.044 82.6892 18.0843 82.1298 18.6539C81.5295 19.2133 80.4141 19.493 78.7906 19.493H68.4522C66.8184 19.493 65.7167 19.2133 65.1471 18.6539C64.5673 18.1014 64.2773 17.061 64.2773 15.5398V15.0896L67.7121 14.3801V16.355H79.5375V12.5348H69.1037C67.4904 12.5348 66.3989 12.2551 65.8293 11.6958C65.2494 11.1432 64.9595 10.1029 64.9595 8.58506V6.73296C64.9595 5.21172 65.2494 4.17482 65.8293 3.62226C66.3921 3.05606 67.487 2.77637 69.1037 2.77637H78.5961C80.1719 2.77637 81.2634 3.04924 81.8706 3.59156C82.4504 4.13389 82.7403 5.08552 82.7403 6.43963V6.79436L79.3056 7.60955V5.69606V5.68583Z" fill="#E15524"></path><path d="M89.3555 19.49V2.7666H103.644C104.957 2.7666 105.929 3.01559 106.563 3.51699C107.143 4.02862 107.433 4.86087 107.433 6.01033V9.73499C107.433 10.864 107.143 11.6826 106.563 12.1942C105.946 12.7161 104.974 12.9787 103.644 12.9787H93.179V19.49H89.3589H89.3555ZM101.924 5.65219H93.1756V10.0897H101.924C102.607 10.0897 103.071 9.9908 103.316 9.79638C103.555 9.60196 103.671 9.25747 103.671 8.75948V6.97901C103.671 6.48444 103.551 6.13653 103.316 5.94211C103.067 5.74769 102.603 5.64878 101.924 5.64878V5.65219Z" fill="#E15524"></path><path d="M111.191 19.49V2.7666H115.076L115.117 19.49H111.195H111.191Z" fill="#E15524"></path><path d="M121.402 19.49V2.7666H135.69C137.004 2.7666 137.976 3.01559 138.61 3.51699C139.19 4.02862 139.48 4.86087 139.48 6.01033V9.93282C139.48 11.055 139.19 11.877 138.61 12.392C138 12.9105 137.024 13.1663 135.69 13.1663H133.521L141.233 19.4866H135.656L128.916 13.1663H125.223V19.4866H121.402V19.49ZM133.971 5.65219H125.223V10.3182H133.971C134.654 10.3182 135.117 10.2193 135.363 10.0249C135.602 9.82026 135.718 9.47235 135.718 8.98801V6.97901C135.718 6.48444 135.598 6.13653 135.363 5.94211C135.114 5.74769 134.65 5.64878 133.971 5.64878V5.65219Z" fill="#E15524"></path><path d="M145.152 19.49V2.7666H149.037L149.078 19.49H145.156H145.152Z" fill="#E15524"></path><path d="M162.769 5.74769V19.49H158.878V5.74769H151.203V2.7666H170.481V5.74769H162.769Z" fill="#E15524"></path><path d="M86.6953 59.7799V53.0264H87.9335V59.7799H86.6953Z" fill="white"></path><path d="M90.5001 55.5672H90.5206C90.5922 55.4648 90.6809 55.3659 90.7901 55.2704C90.8992 55.1715 91.022 55.0862 91.1584 55.0146C91.2949 54.943 91.4484 54.8816 91.6155 54.8338C91.7826 54.7895 91.96 54.7656 92.1476 54.7656C92.325 54.7656 92.4989 54.7861 92.666 54.827C92.8332 54.8679 92.9867 54.9293 93.1231 55.018C93.2595 55.1033 93.3823 55.2159 93.4881 55.3523C93.5938 55.4887 93.6757 55.6524 93.7371 55.84C93.7712 55.9458 93.795 56.0583 93.8053 56.1811C93.8155 56.3039 93.8223 56.4472 93.8223 56.6075V59.783H92.6251V56.7951C92.6251 56.6655 92.6183 56.5529 92.6115 56.4574C92.6046 56.3619 92.5842 56.28 92.5569 56.2084C92.4955 56.0549 92.4034 55.9424 92.2806 55.8742C92.1578 55.8059 92.0077 55.7718 91.8338 55.7718C91.6018 55.7718 91.3801 55.8264 91.1653 55.9355C90.9504 56.0447 90.7628 56.205 90.5956 56.4131V59.7796H89.3984V54.8884H90.3876L90.5001 55.5706V55.5672Z" fill="white"></path><path d="M97.2968 58.3612C97.2968 58.2554 97.2661 58.1701 97.2081 58.1053C97.1501 58.0371 97.0717 57.9825 96.9727 57.9348C96.8738 57.8905 96.7647 57.8495 96.6385 57.8154C96.5123 57.7813 96.3793 57.7472 96.2428 57.7131C96.0689 57.6653 95.8983 57.6108 95.738 57.5494C95.5777 57.488 95.4344 57.4061 95.3117 57.3038C95.1889 57.2015 95.0899 57.0753 95.0183 56.9218C94.9467 56.7683 94.9092 56.5807 94.9092 56.359C94.9092 56.0861 94.9569 55.8508 95.0558 55.6495C95.1548 55.4483 95.2844 55.2846 95.4515 55.1515C95.6186 55.0185 95.813 54.923 96.0313 54.8582C96.2496 54.7934 96.485 54.7627 96.7306 54.7627C97.0307 54.7627 97.3104 54.7866 97.5731 54.8343C97.8357 54.8821 98.0744 54.9469 98.2859 55.0219V55.9974C98.1734 55.9599 98.0574 55.9258 97.9346 55.8951C97.8118 55.8644 97.6856 55.8371 97.5594 55.8132C97.4332 55.7894 97.307 55.7689 97.1842 55.7553C97.058 55.7416 96.942 55.7314 96.8295 55.7314C96.6896 55.7314 96.5703 55.745 96.4713 55.7723C96.3724 55.7996 96.294 55.8337 96.2326 55.8815C96.1712 55.9258 96.1268 55.9804 96.103 56.0384C96.0757 56.0963 96.062 56.1577 96.062 56.2225C96.062 56.3351 96.0927 56.4238 96.1507 56.4954C96.2087 56.567 96.2906 56.625 96.3963 56.666C96.502 56.7103 96.6112 56.7478 96.7237 56.7751C96.8363 56.8024 96.9489 56.8331 97.058 56.857C97.2251 56.8979 97.3957 56.9456 97.5628 57.0036C97.73 57.0616 97.8834 57.1401 98.0165 57.2424C98.1495 57.3447 98.262 57.4777 98.3473 57.6415C98.4326 57.8052 98.4769 58.0132 98.4769 58.2656C98.4769 58.5419 98.4258 58.7807 98.32 58.9887C98.2143 59.1934 98.071 59.3639 97.8834 59.5004C97.6958 59.6368 97.4741 59.7391 97.2115 59.8039C96.9489 59.8688 96.6623 59.9029 96.352 59.9029C96.0416 59.9029 95.7653 59.879 95.5163 59.8312C95.2673 59.7835 95.0627 59.7221 94.9023 59.647V58.6818C95.165 58.7807 95.4072 58.8455 95.6289 58.8796C95.8506 58.9137 96.0586 58.9342 96.2496 58.9342C96.3963 58.9342 96.5361 58.9239 96.6623 58.9001C96.792 58.8796 96.9011 58.8421 96.9932 58.7977C97.0853 58.75 97.1603 58.692 97.2115 58.617C97.2661 58.5453 97.2934 58.4567 97.2934 58.3577L97.2968 58.3612Z" fill="white"></path><path d="M102.502 59.7731C102.369 59.814 102.205 59.8447 102.021 59.8686C101.833 59.8925 101.659 59.9027 101.499 59.9027C101.09 59.9027 100.752 59.8345 100.493 59.7049C100.234 59.5753 100.049 59.3808 99.9402 59.1318C99.8618 58.9545 99.8243 58.7123 99.8243 58.4053V55.8711H98.9102V54.8853H99.8243V53.5176H101.021V54.8853H102.434V55.8711H101.021V58.2484C101.021 58.436 101.049 58.5759 101.107 58.668C101.209 58.8215 101.407 58.8999 101.707 58.8999C101.847 58.8999 101.983 58.8897 102.12 58.8658C102.256 58.8453 102.386 58.8146 102.505 58.7839V59.7731H102.502Z" fill="white"></path><path d="M103.438 52.4668H104.696V53.7629H103.438V52.4668ZM103.468 54.8851H104.665V59.7763H103.468V54.8851Z" fill="white"></path><path d="M106.055 59.7792V52.4697H107.252V59.7792H106.055Z" fill="white"></path><path d="M108.668 59.7792V52.4697H109.865V59.7792H108.668Z" fill="white"></path><path d="M111.227 52.4668H112.485V53.7629H111.227V52.4668ZM111.257 54.8851H112.454V59.7763H111.257V54.8851Z" fill="white"></path><path d="M114.895 55.5672H114.915C114.987 55.4648 115.075 55.3659 115.185 55.2704C115.294 55.1715 115.417 55.0862 115.553 55.0146C115.689 54.943 115.843 54.8816 116.01 54.8338C116.177 54.7895 116.355 54.7656 116.542 54.7656C116.719 54.7656 116.893 54.7861 117.061 54.827C117.228 54.8679 117.381 54.9293 117.518 55.018C117.654 55.1033 117.777 55.2159 117.883 55.3523C117.988 55.4887 118.07 55.6524 118.132 55.84C118.166 55.9458 118.19 56.0583 118.2 56.1811C118.21 56.3039 118.217 56.4472 118.217 56.6075V59.783H117.02V56.7951C117.02 56.6655 117.013 56.5529 117.006 56.4574C116.999 56.3619 116.979 56.28 116.951 56.2084C116.89 56.0549 116.798 55.9424 116.675 55.8742C116.552 55.8059 116.402 55.7718 116.228 55.7718C115.996 55.7718 115.775 55.8264 115.56 55.9355C115.345 56.0447 115.157 56.205 114.99 56.4131V59.7796H113.793V54.8884H114.782L114.895 55.5706V55.5672Z" fill="white"></path><path d="M122.709 59.9058C122.709 59.8376 122.709 59.7557 122.709 59.6568C122.709 59.5579 122.715 59.4726 122.722 59.4078H122.712C122.637 59.4692 122.552 59.5272 122.456 59.5886C122.361 59.6466 122.255 59.7011 122.139 59.7489C122.026 59.7966 121.897 59.8376 121.76 59.8649C121.621 59.8921 121.481 59.9092 121.337 59.9092C121.078 59.9092 120.826 59.8614 120.577 59.7694C120.331 59.6773 120.11 59.5306 119.919 59.3294C119.728 59.1281 119.571 58.8723 119.455 58.5585C119.339 58.2447 119.277 57.8695 119.277 57.4261C119.277 56.9827 119.335 56.6007 119.458 56.2664C119.577 55.9355 119.738 55.6593 119.936 55.4376C120.133 55.2159 120.362 55.0487 120.621 54.9362C120.877 54.8236 121.143 54.7656 121.416 54.7656C121.716 54.7656 121.982 54.8304 122.214 54.9566C122.446 55.0828 122.637 55.2431 122.784 55.4376H122.804L122.855 54.8884H123.906V59.8717C123.906 60.1582 123.882 60.4038 123.834 60.6084C123.786 60.8131 123.718 60.9939 123.626 61.1542C123.517 61.3383 123.381 61.5021 123.213 61.6385C123.046 61.7749 122.855 61.8909 122.644 61.983C122.429 62.0751 122.194 62.1433 121.938 62.1877C121.682 62.232 121.413 62.2559 121.126 62.2559C120.966 62.2559 120.805 62.249 120.652 62.2388C120.498 62.2252 120.352 62.2115 120.215 62.1877C120.079 62.1638 119.956 62.1399 119.844 62.1126C119.731 62.0853 119.635 62.0546 119.557 62.0239V61.0484C119.779 61.1235 120.011 61.178 120.256 61.219C120.502 61.2565 120.758 61.277 121.027 61.277C121.563 61.277 121.975 61.1746 122.269 60.9666C122.562 60.7585 122.709 60.4447 122.709 60.0252V59.9092V59.9058ZM121.638 58.9507C121.76 58.9507 121.873 58.9371 121.982 58.9064C122.091 58.8757 122.19 58.8382 122.279 58.7904C122.371 58.7427 122.449 58.6915 122.524 58.6335C122.596 58.5756 122.658 58.521 122.709 58.463V56.2766C122.579 56.1266 122.422 56.0004 122.235 55.898C122.047 55.7957 121.846 55.7445 121.634 55.7411C121.559 55.7411 121.481 55.7514 121.399 55.7684C121.317 55.7855 121.232 55.8196 121.15 55.8673C121.065 55.9151 120.986 55.9765 120.911 56.0583C120.836 56.1368 120.768 56.2391 120.713 56.3585C120.655 56.4779 120.611 56.6245 120.573 56.7917C120.539 56.9588 120.519 57.1566 120.519 57.3783C120.519 57.6239 120.543 57.8422 120.591 58.0366C120.638 58.2311 120.71 58.3948 120.802 58.5312C120.898 58.6676 121.013 58.7734 121.153 58.845C121.293 58.9166 121.457 58.9542 121.641 58.9542L121.638 58.9507Z" fill="white"></path><path d="M128.734 59.7799H127.496V53.0264H131.797V54.0599H128.734V55.8062H131.354V56.8397H128.734V59.7765V59.7799Z" fill="white"></path><path d="M134.894 59.906C134.403 59.906 133.997 59.8242 133.673 59.6571C133.349 59.4899 133.107 59.2648 132.939 58.9817C132.851 58.8316 132.786 58.6645 132.745 58.4837C132.704 58.3029 132.684 58.1017 132.684 57.8766V54.8887H133.881V57.7504C133.881 57.9141 133.891 58.0574 133.915 58.1767C133.939 58.2961 133.973 58.3984 134.021 58.4871C134.103 58.6338 134.215 58.7464 134.365 58.818C134.512 58.8896 134.689 58.9271 134.894 58.9271C135.098 58.9271 135.293 58.8862 135.446 58.8077C135.6 58.7259 135.716 58.6031 135.791 58.4394C135.869 58.2825 135.907 58.0608 135.907 57.7777V54.8887H137.104V57.8766C137.104 58.2722 137.036 58.6099 136.896 58.8828C136.818 59.0363 136.719 59.1795 136.596 59.3057C136.473 59.4319 136.33 59.5411 136.163 59.6298C135.996 59.7184 135.808 59.7867 135.596 59.8378C135.385 59.8856 135.153 59.9095 134.894 59.9095V59.906Z" fill="white"></path><path d="M141.357 59.7731C141.224 59.814 141.061 59.8447 140.876 59.8686C140.689 59.8925 140.515 59.9027 140.354 59.9027C139.945 59.9027 139.607 59.8345 139.348 59.7049C139.089 59.5753 138.905 59.3808 138.796 59.1318C138.717 58.9545 138.68 58.7123 138.68 58.4053V55.8711H137.766V54.8853H138.68V53.5176H139.877V54.8853H141.289V55.8711H139.877V58.2484C139.877 58.436 139.904 58.5759 139.962 58.668C140.065 58.8215 140.262 58.8999 140.563 58.8999C140.702 58.8999 140.839 58.8897 140.975 58.8658C141.112 58.8453 141.241 58.8146 141.361 58.7839V59.7731H141.357Z" fill="white"></path><path d="M144.452 59.906C143.961 59.906 143.555 59.8242 143.231 59.6571C142.907 59.4899 142.665 59.2648 142.498 58.9817C142.409 58.8316 142.345 58.6645 142.304 58.4837C142.263 58.3029 142.242 58.1017 142.242 57.8766V54.8887H143.439V57.7504C143.439 57.9141 143.45 58.0574 143.474 58.1767C143.497 58.2961 143.531 58.3984 143.579 58.4871C143.661 58.6338 143.774 58.7464 143.924 58.818C144.07 58.8896 144.248 58.9271 144.452 58.9271C144.657 58.9271 144.851 58.8862 145.005 58.8077C145.158 58.7259 145.274 58.6031 145.349 58.4394C145.428 58.2825 145.465 58.0608 145.465 57.7777V54.8887H146.663V57.8766C146.663 58.2722 146.594 58.6099 146.455 58.8828C146.376 59.0363 146.277 59.1795 146.154 59.3057C146.032 59.4319 145.888 59.5411 145.721 59.6298C145.554 59.7184 145.367 59.7867 145.155 59.8378C144.944 59.8856 144.712 59.9095 144.452 59.9095V59.906Z" fill="white"></path><path d="M150.831 55.8371H150.729C150.361 55.8371 150.04 55.8917 149.764 56.0009C149.487 56.11 149.273 56.2771 149.119 56.5022V59.7801H147.922V54.8889H148.911L149.024 55.5711H149.044C149.187 55.3221 149.378 55.1277 149.627 54.9844C149.876 54.8412 150.173 54.7695 150.518 54.7695C150.64 54.7695 150.743 54.7764 150.831 54.79V55.8405V55.8371Z" fill="white"></path><path d="M154.058 58.941C154.29 58.941 154.532 58.9171 154.785 58.8694C155.037 58.8216 155.293 58.7534 155.552 58.6681V59.6232C155.399 59.6914 155.16 59.7528 154.839 59.8142C154.519 59.8756 154.188 59.9063 153.843 59.9063C153.499 59.9063 153.168 59.8619 152.858 59.7733C152.547 59.6846 152.274 59.5413 152.042 59.3401C151.81 59.1423 151.626 58.883 151.49 58.5692C151.353 58.252 151.285 57.87 151.285 57.4198C151.285 56.9695 151.35 56.5875 151.476 56.2533C151.602 55.919 151.776 55.6427 151.991 55.4244C152.206 55.2061 152.452 55.0424 152.731 54.9333C153.011 54.8241 153.298 54.7695 153.591 54.7695C153.884 54.7695 154.184 54.8173 154.447 54.9128C154.71 55.0083 154.935 55.155 155.122 55.3562C155.313 55.5574 155.46 55.8167 155.566 56.1373C155.672 56.4579 155.726 56.8331 155.726 57.2663C155.723 57.4334 155.716 57.5767 155.712 57.696H152.506C152.523 57.9212 152.574 58.1156 152.656 58.2759C152.742 58.4362 152.851 58.5658 152.987 58.6647C153.124 58.7636 153.284 58.8353 153.465 58.883C153.645 58.9274 153.843 58.9512 154.055 58.9512L154.058 58.941ZM153.577 55.7007C153.427 55.7007 153.291 55.728 153.175 55.7826C153.055 55.8371 152.956 55.9122 152.868 56.0111C152.783 56.1066 152.714 56.2191 152.663 56.3453C152.612 56.475 152.578 56.6114 152.561 56.7546H154.485C154.485 56.6114 154.464 56.475 154.427 56.3453C154.389 56.2157 154.331 56.1066 154.256 56.0111C154.181 55.9156 154.085 55.8405 153.973 55.7826C153.86 55.728 153.727 55.7007 153.577 55.7007Z" fill="white"></path><path d="M159.004 58.3612C159.004 58.2554 158.973 58.1701 158.915 58.1053C158.857 58.0371 158.779 57.9825 158.68 57.9348C158.581 57.8905 158.472 57.8495 158.346 57.8154C158.219 57.7813 158.086 57.7472 157.95 57.7131C157.776 57.6653 157.605 57.6108 157.445 57.5494C157.285 57.488 157.141 57.4061 157.019 57.3038C156.896 57.2015 156.797 57.0753 156.725 56.9218C156.654 56.7683 156.616 56.5807 156.616 56.359C156.616 56.0861 156.664 55.8508 156.763 55.6495C156.862 55.4483 156.991 55.2846 157.159 55.1515C157.326 55.0185 157.52 54.923 157.738 54.8582C157.957 54.7934 158.192 54.7627 158.438 54.7627C158.738 54.7627 159.017 54.7866 159.28 54.8343C159.543 54.8821 159.781 54.9469 159.993 55.0219V55.9974C159.88 55.9599 159.764 55.9258 159.642 55.8951C159.519 55.8644 159.393 55.8371 159.266 55.8132C159.14 55.7894 159.014 55.7689 158.891 55.7553C158.765 55.7416 158.649 55.7314 158.537 55.7314C158.397 55.7314 158.277 55.745 158.178 55.7723C158.079 55.7996 158.001 55.8337 157.94 55.8815C157.878 55.9258 157.834 55.9804 157.81 56.0384C157.783 56.0963 157.769 56.1577 157.769 56.2225C157.769 56.3351 157.8 56.4238 157.858 56.4954C157.916 56.567 157.998 56.625 158.103 56.666C158.209 56.7103 158.318 56.7478 158.431 56.7751C158.543 56.8024 158.656 56.8331 158.765 56.857C158.932 56.8979 159.103 56.9456 159.27 57.0036C159.437 57.0616 159.59 57.1401 159.723 57.2424C159.857 57.3447 159.969 57.4777 160.054 57.6415C160.14 57.8052 160.184 58.0132 160.184 58.2656C160.184 58.5419 160.133 58.7807 160.027 58.9887C159.921 59.1934 159.778 59.3639 159.59 59.5004C159.403 59.6368 159.181 59.7391 158.919 59.8039C158.656 59.8688 158.369 59.9029 158.059 59.9029C157.749 59.9029 157.472 59.879 157.223 59.8312C156.974 59.7835 156.77 59.7221 156.609 59.647V58.6818C156.872 58.7807 157.114 58.8455 157.336 58.8796C157.558 58.9137 157.766 58.9342 157.957 58.9342C158.103 58.9342 158.243 58.9239 158.369 58.9001C158.499 58.8796 158.608 58.8421 158.7 58.7977C158.792 58.75 158.867 58.692 158.919 58.617C158.973 58.5453 159 58.4567 159 58.3577L159.004 58.3612Z" fill="white"></path><path d="M161.398 58.4326H162.756V59.7799H161.398V58.4326Z" fill="white"></path><path d="M164.426 58.4326H165.783V59.7799H164.426V58.4326Z" fill="white"></path><path d="M167.449 58.4326H168.807V59.7799H167.449V58.4326Z" fill="white"></path><path d="M19.7192 10.6767C21.9307 10.6767 23.7235 8.88386 23.7235 6.67232C23.7235 4.46078 21.9307 2.66797 19.7192 2.66797C17.5077 2.66797 15.7148 4.46078 15.7148 6.67232C15.7148 8.88386 17.5077 10.6767 19.7192 10.6767Z" fill="white"></path><path d="M3.32088 21.8238C3.32088 21.8238 6.47592 17.5398 11.1283 15.4216C15.6273 13.3751 17.2577 14.6473 17.9739 16.0015C18.6902 17.3556 18.4787 20.3844 16.4629 23.8737C16.248 24.3683 8.18135 39.6524 5.82786 43.07C2.89452 47.1801 1.95312 47.1494 1.95312 47.1494C1.95312 47.1494 10.5894 31.6198 13.2021 25.3506C14.1026 23.3757 15.7705 16.977 8.41329 19.0917C5.91313 19.9239 4.5215 21.8102 4.5215 21.8102L3.31747 21.8238H3.32088Z" fill="#E15524"></path><path fill-rule="evenodd" clip-rule="evenodd" d="M182.363 2.44546C180.043 2.44546 178.162 4.32633 178.162 6.64648C178.162 8.96663 180.043 10.8475 182.363 10.8475C184.683 10.8475 186.564 8.96663 186.564 6.64648C186.564 4.32633 184.683 2.44546 182.363 2.44546ZM177.398 6.64648C177.398 3.90448 179.621 1.68164 182.363 1.68164C185.105 1.68164 187.328 3.90448 187.328 6.64648C187.328 9.38849 185.105 11.6113 182.363 11.6113C179.621 11.6113 177.398 9.38849 177.398 6.64648Z" fill="white"></path><path fill-rule="evenodd" clip-rule="evenodd" d="M180.836 4.7364C180.836 4.52547 181.007 4.35449 181.218 4.35449H182.745C183.151 4.35449 183.539 4.51543 183.826 4.80194C184.112 5.08841 184.273 5.47697 184.273 5.88214C184.273 6.28731 184.112 6.67586 183.826 6.96233C183.539 7.24884 183.151 7.40978 182.745 7.40978H181.6V8.55551C181.6 8.76644 181.429 8.93743 181.218 8.93743C181.007 8.93743 180.836 8.76644 180.836 8.55551V4.7364ZM181.6 6.64596H182.745C182.948 6.64596 183.142 6.56549 183.286 6.42224C183.429 6.27898 183.509 6.0847 183.509 5.88214C183.509 5.67957 183.429 5.48529 183.286 5.34204C183.142 5.19878 182.948 5.11831 182.745 5.11831H181.6V6.64596Z" fill="white"></path><path fill-rule="evenodd" clip-rule="evenodd" d="M182.605 6.71034C182.778 6.58966 183.016 6.63201 183.137 6.80498L184.206 8.3374C184.327 8.51037 184.284 8.74845 184.111 8.86917C183.938 8.98986 183.7 8.9475 183.579 8.77453L182.51 7.24212C182.389 7.06911 182.432 6.83106 182.605 6.71034Z" fill="white"></path></svg> 